<?xml version="1.0" standalone="no"?>
<!DOCTYPE svg PUBLIC "-//W3C//DTD SVG 1.1//EN" "http://www.w3.org/Graphics/SVG/1.1/DTD/svg11.dtd">
<svg width="100%" height="100%" viewBox="0 0 356 356" version="1.1" xmlns="http://www.w3.org/2000/svg" xmlns:xlink="http://www.w3.org/1999/xlink" xml:space="preserve" style="fill-rule:evenodd;clip-rule:evenodd;stroke-linecap:round;stroke-linejoin:round;stroke-miterlimit:1.41421;">
    <g transform="matrix(5.55556,0,0,5.55556,-0,-0)">
        <g transform="matrix(1.10714,9.35075e-18,9.35075e-18,1.06897,-2.32143,-1.13793)">
            <ellipse cx="31" cy="31" rx="28" ry="29" style="fill:none;stroke-width:1.38px;stroke:black;"/>
        </g>
        <g transform="matrix(0.0498512,-2.49749e-33,-2.4761e-33,0.0498512,4.0658,6.45578)">
            <path d="M25.984,604.672L96,534.624L96,560C96,802.848 317.152,1024 560,1024C802.848,1024 1024,802.848 1024,560L1024,535.296L1094.69,605.984C1097.82,609.12 1101.92,610.656 1106.02,610.656C1110.11,610.656 1114.21,609.088 1117.34,605.984C1123.58,599.744 1123.58,589.6 1117.34,583.36L1020.77,486.784C1017.82,482.784 1013.34,480 1008,480C1006.56,480 1005.31,480.448 1003.97,480.8C1001.02,481.408 998.176,482.528 996,484.672L898.656,582.016C892.416,588.256 892.416,598.4 898.656,604.64C904.896,610.88 915.04,610.88 921.28,604.64L992,533.952L992,560C992,780.736 795.68,981.664 576,991.104L576,384L848,384C856.832,384 864,376.832 864,368C864,359.168 856.832,352 848,352L576,352L576,222.368C630.144,214.528 672,168.256 672,112C672,50.24 621.76,0 560,0C498.24,0 448,50.24 448,112C448,168.256 489.856,214.528 544,222.368L544,352L272,352C263.168,352 256,359.168 256,368C256,376.832 263.168,384 272,384L544,384L544,991.104C324.32,981.664 128,780.736 128,560L128,534.624L199.36,605.984C202.496,609.12 206.592,610.656 210.688,610.656C214.784,610.656 218.88,609.088 222.016,605.984C228.256,599.744 228.256,589.6 222.016,583.36L123.36,484.736C120.448,481.792 116.416,480 112,480C107.584,480 103.552,481.792 100.672,484.704L3.36,582.016C-2.88,588.256 -2.88,598.4 3.36,604.64C9.6,610.88 19.744,610.912 25.984,604.672L25.984,604.672ZM560,32C604.096,32 640,67.872 640,112C640,156.128 604.096,192 560,192C515.904,192 480,156.128 480,112C480,67.872 515.904,32 560,32Z" style="fill:black;fill-rule:nonzero;"/>
        </g>
    </g>
</svg>
